<?xml version="1.0" encoding="UTF-8"?>
<svg id="a" data-name="Layer 1" xmlns="http://www.w3.org/2000/svg" viewBox="0 0 16 16">
  <defs>
    <style>
      .b {
        fill: #bf3232;
        stroke-width: 0px;
      }
    </style>
  </defs>
  <path class="b" d="m15,8h-2.89c0-2.27-1.84-4.11-4.11-4.11-1.14,0-2.16.46-2.91,1.2l1.91,1.91H1V1l2.05,2.05c1.27-1.27,3.01-2.05,4.95-2.05,3.87,0,7,3.13,7,7Z"/>
  <path class="b" d="m3.2,8.75c.36,2.33,2.38,4.11,4.8,4.11,1.29,0,2.51-.5,3.44-1.42l.54-.53-.53-.53-.63-.63h3.44v3.44l-.77-.77-.53-.53-.53.53c-1.18,1.18-2.75,1.83-4.42,1.83-3.19,0-5.83-2.41-6.21-5.5h1.4m.69-.75H1c0,3.87,3.13,7,7,7,1.94,0,3.68-.78,4.95-2.05l2.05,2.05v-6h-6l1.91,1.91c-.75.74-1.77,1.2-2.91,1.2-2.27,0-4.11-1.84-4.11-4.11h0Z"/>
</svg>